<?xml version="1.0" encoding="utf-8"?>
<!-- Generator: Adobe Illustrator 20.0.0, SVG Export Plug-In . SVG Version: 6.00 Build 0)  -->
<svg version="1.1" xmlns="http://www.w3.org/2000/svg" xmlns:xlink="http://www.w3.org/1999/xlink" x="0px" y="0px"
	 viewBox="0 0 1157 648" style="enable-background:new 0 0 1157 648;" xml:space="preserve">
<style type="text/css">
	.st0{fill:#00AEEF;}
	.st1{opacity:0.26;fill:#00AEEF;}
	.st2{opacity:0.23;fill:#00AEEF;}
	.st3{opacity:0.18;fill:#00AEEF;}
	.st4{opacity:0.37;fill:#00AEEF;}
	.st5{opacity:0.2;fill:#00AEEF;}
	.st6{opacity:0.22;fill:#00AEEF;}
	.st7{fill:#231F20;}
	.st8{opacity:0.4;fill:#231F20;}
	.st9{stroke:#231F20;stroke-miterlimit:10;}
	.st10{opacity:0.52;fill:#FFFFFF;}
	.st11{opacity:0.69;fill:#FFFFFF;}
	.st12{fill:#606060;}
	.st13{fill:#FFFFFF;}
	.st14{fill:none;stroke:#FFFFFF;stroke-miterlimit:10;}
	.st15{fill:#92E4F7;}
	.st16{fill:none;stroke:#92E4F7;stroke-miterlimit:10;}
	.st17{opacity:0.36;fill:#00AEEF;}
	.st18{display:none;}
	.st19{display:inline;}
</style>
<g id="bg">
	<rect x="-1.5" y="1" class="st0" width="1157" height="648"/>
</g>
<g id="b3">
	<path class="st1" d="M672.1,345c0,0,99.6,91.1,103.2,90.4c3.5-0.7,158.3,17.7,158.3,17.7L672.1,345z"/>
	<polygon class="st2" points="614.9,330.1 959,448.8 876.3,358.4 	"/>
</g>
<g id="b2">
	<path class="st3" d="M701.1,350.6c6.4,2.8,158.3,109.5,158.3,109.5s156.2,11.3,153.3,10.6C1009.9,470,701.1,350.6,701.1,350.6z"/>
</g>
<g id="b1">
	<path class="st4" d="M694.7,301.9c4.9,0,175.2,104.6,178.1,102.5s102.5-2.8,102.5-2.8L694.7,301.9z"/>
	<path class="st4" d="M792.5,324.2c3.1,0,111.2,66.4,113,65c1.8-1.3,65-1.8,65-1.8L792.5,324.2z"/>
	<path class="st4" d="M734,294.6c2,0,70.2,41.9,71.3,41c1.1-0.8,41-1.1,41-1.1L734,294.6z"/>
	<path class="st5" d="M381.5,357.5c10.9,0,384.9,229.7,391.1,225s225-6.2,225-6.2L381.5,357.5z"/>
	<path class="st4" d="M455,370.4c6.6,0,235.1,140.3,238.9,137.5s137.5-3.8,137.5-3.8L455,370.4z"/>
	<path class="st6" d="M525.3,423.8c4.6,0,134.7,114.9,134.7,113.1c0-3.3,105.5-17.9,105.5-17.9L525.3,423.8z"/>
</g>
<g id="character">
	<g>
		<polyline class="st0" points="742.5,392.7 745.3,395.8 744.4,400.5 754.1,403.6 759.3,414.4 762.8,416.3 766.3,421.2 769.1,420.5 
			771.3,418.4 770,415.7 768,411.6 768.7,409.9 770.5,412.3 771.7,415.6 773.8,413.7 773.4,410.6 775.3,409.7 774.1,406.6 
			775.7,404.5 774.6,400.8 773.6,399.6 773.6,397 769.4,394.4 753.8,376.7 742.5,392.7 		"/>
		<polygon class="st7" points="748.3,394 748.6,399.7 756.5,402.2 753.4,398.1 751.2,395.6 756.5,397.8 760.3,384 757.7,379.9 		"/>
		<path class="st7" d="M761.8,389.9c-0.3,0.9-1.9,7.5-1.9,7.5l2.8,8.2L761.8,389.9z"/>
		<polygon class="st7" points="765,394 766.2,400.9 767.8,398.4 770,400.9 767.8,394.3 766.9,396.5 		"/>
		<polygon class="st7" points="754.9,403.7 759.6,412.8 762.8,413.2 765.9,410.3 764,414.4 765.6,417.9 766.2,414.4 768.1,412.8 
			770,415.7 767.8,415 766.9,417.6 766.5,420.1 762.5,415.4 759.3,414.4 		"/>
		<polygon class="st7" points="768.4,409.1 767.8,405 770,407.2 771.6,411 771.9,413.8 769.8,409.9 		"/>
		<polygon class="st7" points="769.8,402.9 772,404.5 773.4,410.6 770.8,405.2 		"/>
		<polygon class="st7" points="772.2,400.3 774.6,402.4 774.1,406.6 		"/>
		<polygon class="st7" points="771,396 773.6,397 773.6,399.6 		"/>
		<path class="st0" d="M885.3,521.2c0.2-0.6,24.7,9.9,24.7,9.9l9.3,8.6l8.8,3.6l1.1,1.3l4.7-0.2l1.6-2.2h4.6l1.4-3.3l2.4-0.6v-3.5
			l2-0.8l0.5-5l-4.4-4.1l-3.9-0.3l-3-6.4l-6.1-1.3l-4.9-3.9l-10.2,2.7l-10.4-10l-2.5-2.4l-6.9,2.5c0,0-3.5-3.9-4.1-3.6
			s-3.6,2.4-3.6,2.4l-6.1-2.8l-2.8,7.2L885.3,521.2"/>
		<path class="st7" d="M913.5,518.3c0.7,0.2,8.2,1.2,8.2,1.2l-0.5,1.4l9.9,7.8l-10.4-6.1l-2.6-1.9L913.5,518.3z"/>
		<path class="st7" d="M885,505.8c0.7,0.5,20.3,9.9,20.3,9.9l-6.6-4.7l2.4-1.9l-3.5-2.6v2.4l-1.9,0.9L885,505.8L885,505.8"/>
		<polygon class="st7" points="898.2,516.6 919.6,523.9 922.5,528.7 929.8,530.1 932.1,534.3 936.6,536 938.5,536.4 939.7,533.6 
			942.3,535 940.1,535.2 939.9,537.4 941.8,537.8 937.1,537.8 931.3,535.3 928.8,530.9 921.5,529.7 917.6,525.4 		"/>
		<path class="st7" d="M909,525.1l6.6,3.1l3.5,4.6c0,0,7.7,0.6,8.2,0.8c0.5,0.2,2.2,3.6,2.2,3.6l4.2,1.4l0.9,1.1l2.7,0.5l0.6-1.6
			l3.5,0.3l-2.8,0.5l-0.8,2l1.6,0.5l-3.6-0.6l-3-1.6l-1.6-1.3l-3.5-0.6l-1.9-3.3l-6.9-0.6l-5.3-5.3L909,525.1z"/>
		<path class="st7" d="M910.8,529.8c0.5,0.2,8.6,6.1,8.6,6.1l5.2,0.6l3,2.7l2.8,1.9h1.7l3.1,1.1l-1.6,0.5l-2.2-0.5l-0.8,0.8l1.7,0.8
			l-3.5-0.6l0.2-1.3l-3.3-2.4l-2.2-2l-4.2,0.3L910.8,529.8z"/>
		<polygon class="st7" points="920.1,539.4 923.4,539.1 928,542.5 923.3,540.5 		"/>
		<path class="st7" d="M933,528.4c0.3,0.5,2.7,3.3,2.7,3.3l2.5,0.2l5.5,3l0.2-1.7c0,0-5.2-1.9-5.2-2.4c0-0.5,0.5-2.7,0.5-2.7l5,2.2
			l0.8-2l-1.4,0.3l-5.3-1.6c0,0-0.2,4.1-0.6,3.8c-0.5-0.3-1.7-0.5-1.7-0.5l-0.2-3.9l-1.1,2.7v-3.3l-0.6,2.5l-2.7-2.2L933,528.4z"/>
		<path class="st7" d="M891.5,520.7c0.9,0.2,9.7,3.6,9.3,3.3c-0.5-0.3-3-3.6-3-3.6L891.5,520.7z"/>
		<path class="st0" d="M488.3,162.2c0.9-0.3,25.4-1.3,25.4-1.3l19.5,13.8l1.9,5c0,0,31.4,12.2,32.3,12.6s6.3,4.1,6.3,4.1l14.4-3.1
			l10.4-1.9l16.6,2.5c0,0,27,14.8,28,15.4c0.9,0.6,30.1,12.9,31.1,13.2c0.9,0.3,17,4.4,17,4.4l19.5,7.9l14.1,7.2l5.3,3.1l5.7,2.6
			l-0.6,1.6l-1.1,0.1l4.2,3.8l-3.8,2.1l5.7,4.9l-4.2,3.5l-6.6-3.8L727,263l-9.9-5.2l-11.5-4.9l-6.1-2.6l-7.1-4.2l-5.9,0.9L686,250
			l2.1,4.9l-0.2,6.8l-4.2,2.6l-2.1-5.2l-1.2-4l-3.8-4.7l-1.4-5.2l-7.8-7.1l0.7-5.4c0,0-25-5.7-25.7-5.9c-0.7-0.2-13.4-5.7-14.1-5.7
			c-0.7,0-5.9,2.1-5.9,2.1l-16,1.9l-16.3-8.5l-14.6,5.2l-46.2-5.4l-15.8-20.7L488.3,162.2z"/>
		<path class="st8" d="M535.7,217.3c0-0.7-1.9-4.2-1.9-4.2l-14.6-13.4c0,0-4-19.8-4.9-19.8c-0.9,0-6.1-6.4-6.1-6.4l11.8,0.5
			l10.4,9.2c0,0,25.9,9.4,26.6,9.7c0.7,0.2,17.9,8.5,18.1,7.8s18.6-6.1,18.6-6.1l28.7,7.1l8.5,7.8l42.4,17.2l-4.2,10.1l8.7,8
			l1.6,5.9l3.8,5.2l-0.7,3.8l3.8,6.1h-2.4l-3.3-7.1c0,0-0.5-2.4-1.2-2.8c-0.7-0.5-4.2-5.2-4.2-5.2s0-4.2-0.7-4.5
			c-0.7-0.2-8.2-6.8-8.2-6.8l0.5-6.1l-24.7-5.4l-13.7-5.2l-5.9,1.6l-15.5,2.4l-17.9-9c0,0-11.5,5.2-12.2,4.9
			C576,222.2,535.7,217.3,535.7,217.3z"/>
		<path d="M506.2,172.6c1.3,0,16.6,6.6,16.6,6.6l2.2,7.2l19.5,6l9.1,2.5l28.9,13.5l8.2-2.5l5.3,5l-20.1,8.2l-44.9-6L516.6,199
			l-2.5-19.8L506.2,172.6z"/>
		<path d="M506.8,166.9c0.9-0.3,13.5,4.4,13.5,4.4l8.2,9.7l-9.4-7.9L506.8,166.9z"/>
		<polygon points="532.3,185.2 537.6,184.8 545.4,189.2 		"/>
		<path d="M582.2,204.6c0.9-0.3,13.5-1.3,13.5-1.3l8.5,0.9l-8.2-6.9h-12.6l-9.7,4.7l9.7-1.3L582.2,204.6z"/>
		<path d="M597.3,205.3l12.9,5.7l14.4-0.6l-12.6-5.7l10.4-1.9l8.5,7.2l38.3,15.4l2.8,3.1l2.2-2.8v11l7.9,7.2l3.1,1.6l-4.7,0.9
			l3.8,1.3l-3.8,0.9l4.4,5l1.6,2.5v5.7l-2.1-5.2l-1.9,1.9l1.6,3.5l-2.6-2.8V255l-3.1-3.8l-1.6-5.4l-8-8.5l0.9-4.9l-26.9-6.4
			l-13.7-7.1l-9,3.1l-13.7,0.2l-15.5-7.5l-1.2-3.3l2.8-1.4L597.3,205.3z M650.9,225l20.3,4.2l-18.4-5.7l-22.6-10.1l-4,1.4L650.9,225
			z"/>
		<path class="st9" d="M686.7,242.9c0,0-3.5-1.4-3.5-2.4s-1.2-2.8-1.2-2.8l-4.5-4l12.3,2.3c0,0-3.5,1.9-2.6,1.9
			c0.9,0,6.8,3.3,6.8,3.3L686.7,242.9z"/>
		<polygon points="695.6,241.3 700.1,239.9 702.9,244.6 698,242.2 		"/>
		<path d="M695.4,243.6c0.7,0,11.1,6.8,11.1,6.8l3.3-1.9l-0.7,2.1l4.2-1.4l-2.1,2.8l5.9,3.3l5.2,3.1l2.6-1.6l4.5,3.1l-4.2-1.6
			l-1.6,1.2l3.8,2.6l-6.8-3.1l-11.5-5.9l-7.1-2.6l-8.5-5.7l-5.7-0.9L695.4,243.6z"/>
		<polygon points="704.8,241.3 711.2,246.2 721.6,253.3 727.7,256.4 736.4,262.7 732.9,258.7 734.5,257.8 738.7,259.9 733.3,255.7 
			731.2,255.9 724.9,252.8 722.5,248.8 721.6,251.4 715.4,247.7 713.3,244.8 		"/>
		<polygon points="702,236.6 708.8,237.8 708.8,241.5 706,238.9 		"/>
		<path d="M712.6,240.1l7.1,7.1l7.1,3.3l7.8,4.7l-3.1-3.1l2.1-0.9l3.3,1.6l-5.2-3.8c0,0-3.3,0.2-4,0c-0.7-0.2-5.7-2.6-5.7-2.6
			l-4.5-3.5L712.6,240.1z"/>
		<path d="M714,238c0.7,0.2,7.3,4.9,7.3,4.9l2.6,2.4l5.2,2.4l3.1,0.5l1.9,1.2l-2.8-3.1l3.1,0.7l-4.2-1.9l-2.8-0.2
			c0,0-3.1-1.2-3.8-1.6c-0.7-0.5-5.4-3.3-5.4-3.3L714,238z"/>
		<path class="st9" d="M682.7,227.9c0,0,2.6,3.3,3.8,3.3c1.2,0,13.7,3.5,13.7,3.5l-7.1-3.5L682.7,227.9z"/>
		<path class="st0" d="M387.3,217c-1.4,0-11.3,0.5-11.3,0.5l-13.2-4.7l-25.4,1.4l-9.9,7.5l4.4,4.9l4.6-0.6l23.1,24l7.9,4.2l5.8,8.5
			l-9,24.5l17,21.2l25.4,6.1l34.9,17.4l36.3,21.7l21.7,11.3l17.4,7.1l24.5,17.9l23.1-0.9c0,0,13.2-15.1,13.7-17
			c0.5-1.9,11.8-12.7,11.8-12.7s14.6-9.9,13.7-11.3s9.9-33,9.4-34.4s-3.3-33-3.3-33s-35.3-17.4-37.2-19.3
			c-1.9-1.9-12.2-12.7-12.2-12.7s-17-13.2-17.4-14.6c-0.5-1.4-8-19.8-8-19.8s-14.6-13.2-15.5-15.5c-0.9-2.4-4.7-19.8-6.1-20.3
			c-1.4-0.5-14.1-16.5-16-16.5c-1.9,0-24.5,0.5-24.5,0.5l-16,10.8l-2.4,2.8l-13.7,0.9l-11.8,7.5l-9.9-3.8l-19.3,14.1l-14.1,10.8
			L387.3,217z"/>
		<path class="st10" d="M459.7,172.3c1.6-0.6,13.2-8.5,13.2-8.5s36.4-0.6,37.4-0.3c0.9,0.3,3.8,0,3.8,0l16,11l1.9,6l-11.9-7.5
			l-14.8-5.3l1.6,6.9l-17.6-4.7c0,0-15.1,0.6-16,0.6S459.7,172.3,459.7,172.3z"/>
		<path class="st10" d="M478.6,175.7c1.9,0,16.3,5,16.3,5l12.2,10.7l7.5,15.7l-1.3,8.8l-1.6,10.4l-6,4.4c0,0,2.8-21.7,2.2-22.6
			s-17-18.5-17-18.5L478.6,175.7z"/>
		<path class="st10" d="M518.4,204.9c1.3,0.3,15.1,11.6,15.1,11.6l8.2,18.8l20.7,16.6l7.5,9.4l18.5,11.6c0,0,18.5,8.2,17.6,8.5
			c-0.9,0.3-13.2,1.3-13.2,1.3l-6.9-9.4l-8.5-2.8l12.6,18.2l-4.7,4.4c0,0-14.4-28.6-15.4-28.3c-0.9,0.3-13.8-6.3-13.8-6.3
			s10.4,15.1,9.4,15.1c-0.9,0-13.2-5.7-13.2-5.7s-2.2-17.3-3.1-17.6s-11.9-10.4-11.9-10.4s7.2,20.7,6.3,20.1
			c-0.9-0.6-11.9-24.2-11.9-24.2l-6.3-7.9l-1.6,12.6l-5.7-14.8L518.4,204.9z"/>
		<polygon points="418.9,180.8 434.9,192.7 434,197.1 439.3,192.7 447.8,189.9 443.1,195.5 437.4,203.4 431.4,205.3 436.2,219.4 
			438.4,216.6 438.7,212.8 443.7,198.7 457.5,177.9 450,186.4 448.7,183.6 435.8,188 430.5,185.8 432.1,183.6 424.2,181.4 		"/>
		<polygon points="453.7,200.2 448.7,208.4 444.9,209 438.7,220.6 447.5,227.6 451.2,229.1 453.1,231.3 462.5,219.4 475.1,200.9 
			470.4,203.1 457.2,210 452.5,213.4 455,205.6 		"/>
		<polygon points="465.7,188.6 460,192.1 459.4,200.9 		"/>
		<polygon points="476.4,188.6 472,194.6 466,199.6 464.4,203.1 472.9,198 		"/>
		<polygon points="473.5,182.3 471,184.8 470.4,189.9 		"/>
		<polygon points="472.9,211.5 466.9,221 463.2,223.2 464.1,227.9 464.1,232.9 466.3,235.7 466.6,227.2 471.6,217.2 		"/>
		<path d="M455.6,233.2l2.5,5l13.5,11.6l6.6,8.5l6.9,5.7l6.3-9.1l1.9,3.8l17-14.1l-10.4,1.3l-1.6-3.5l19.2-6.9l-3.1-5l2.2-21.7
			c0,0-7.9-16.6-7.9-17.6c0-0.9-0.9-13.5-0.9-13.5l-2.2,11.9l-2.2-1.6l3.8,6.9l6.6,12.6l-2.2,15.4l-10.7,9.7l-18.2,7.5l6-12.6
			l-19.2,11L455.6,233.2z"/>
		<path d="M457.2,174.8c1.3-0.9,10.7-6.6,10.7-6.6l6.3,0.3l7.9-3.8l-2.5,4.1l14.8,8.5l7.5,9.1l-12.2-8.5l-22-6.6L457.2,174.8z"/>
		<polygon points="508.4,251.1 499.3,258.6 497.7,257.1 494.6,261.2 491.7,273.1 495.5,275 494.9,276.5 523.8,296.3 529.1,299.5 
			531.3,294.1 541.7,267.8 548.3,264.3 543.2,251.4 545.8,262.4 539.2,265.9 536.7,274.7 530.4,275.9 529.7,264.3 531.6,259.3 
			536.7,255.5 533.5,244.2 531.9,253.6 528.8,256.4 530.1,259.3 528.5,262.7 515.3,265.9 500.5,261.2 510,253 522.2,256.8 
			521.6,252.4 530.4,241.1 529.4,234.5 533.2,241.1 541.1,246.4 539.5,239.2 529.1,230.1 522.8,219.7 528.8,239.2 513.7,250.5 		"/>
		<polygon points="545.4,246.4 550.2,251.4 558.6,253.6 558.6,257.7 556.4,258.3 567.7,268.4 566.8,270 553,260.5 553.9,258.3 
			550.5,256.8 		"/>
		<path d="M567.4,272.8l6.6,8.5l2.8,16l15.7,7.5l1.3-12.9l-6.3-12.6l9.4,12.9l2.8,24.8l5.3,16.3l-7.2,0.3l-31.7-8.2l-35.5-24.8
			l6.9-18.5l6.9-12.9c0,0,6.3,4.1,7.2,4.1c0.9,0,10,4.1,10,4.1l2.5,26.1c0,0-0.6,8.8,0.3,8.2c0.9-0.6,6.6-7.2,6.6-7.2l1.3-13.5
			l-0.3-8.5L567.4,272.8z"/>
		<path d="M575.3,269.3l7.9,7.2c0,0,1.9-3.5,0.9-3.8C583.1,272.5,575.3,269.3,575.3,269.3z"/>
		<polygon points="599.2,291.3 607.6,295.7 609.2,304.2 		"/>
		<path d="M423.3,226.9c2.2-0.3,10.4,0,10.4,0l11.3,5.3L423.3,226.9z"/>
		<polygon points="414.5,221.3 403.8,222.8 418.9,223.2 		"/>
		<polygon points="413.5,231.9 416.7,229.8 442.8,236.3 		"/>
		<polygon points="390.3,228.5 395,226.6 410.1,229.4 		"/>
		<polygon points="358.9,235.4 371.5,228.8 369.3,231.3 384.7,234.1 		"/>
		<path d="M357.3,239.2l29.5,0.3l4.4-2.8l22.6-1.3l-5.7,3.1l-8.5,1.3l17,6.6c0,0,23.2,6.3,24.2,6.3c0.9,0,10.4-0.6,10.4-0.6l2.2,7.5
			l13.8,4.7l4.4-5l-2.5,11.6l-8.5,3.8l-20.7,2.2l-27.3-6.3l-25.4-16c0,0-17.6-11.6-18.5-11.9s-10.7-1.6-10.7-1.6L357.3,239.2z"/>
		<path d="M477.3,260.8c0,0-1.6,13.2-2.5,12.9s-17.3,5.7-18.5,5.3c-1.3-0.3-16,0-16,0l7.9,7.5l-2.8,5l5.3,2.8l-5.7,3.5l32-3.5
			l8.5,6.6l-16-2.2l-23.9,4.4l-16.6-6.3l-3.5-8.2c0,0-23.6-9.4-24.5-9.7s-21-11-21-11l-7.2-12.2l1.6-2.2l-19.5-11.9l-6.6-18.5
			l11.3,0.9l11-0.9l-9.7-3.1h11l1.3-1.6l-15.1-2.5l-17.9,1.9l-8.5,5.3l-6-1.9l6.3,5.3l5.3,2.2l14.1,13.2l10.7,10.7l5.3,1.6l4.4,10
			l-2.5,8.5l6.3,17l13.8,5.7l1.3,6.3l20.1,9.4l4.1-1.3c0,0,36.7,13.8,35.8,13.5s-24.2-13.5-24.2-13.5l-15.7-6.6c0,0-7.5-9.1-7.5-10
			c0-0.9,0.3-7.5,0.3-7.5l17.6,7.2l2.8-1.6l3.1,9.1l11.3,5.7l4.7,7.9l6.6,5l9.4,12.2l13.5,5.3l16.6,11.9l-0.3,1.9l16,9.7l-11.3-10.4
			l-0.3-3.1l-16-13.2l-13.2-3.1l-9.7-18.2h9.1l13.5,12.9c0,0,15.4,7.2,15.1,6.3s-3.5-15.4-3.5-15.4l7.9,0.6l2.8,8.2l3.5-6l-0.6-2.5
			l11.9-9.7l2.5,2.2l9.4-6.6l-12.6,11l-4.7,1.9l-8.2,11.9l2.8,9.4l-6.6-7.5l-0.9,9.7l4.7,4.4l0.6-7.5l7.5,11.6l25.1,17.9l-3.5-6
			l12.6-10c0,0,11.3-21.4,12.9-21.7c1.6-0.3,5.3-2.2,5.3-2.2L542,312l-13.2-9.4l-40.5-30.1l-3.1,3.5l-1.9-10.4l-2.5,6.6L477.3,260.8
			z"/>
		<path d="M566.5,327.1c-0.9,0-7.5,0.3-7.5,0.3L547,349.1l-6,4.1l-5.3,6.6l3.5,3.5l9.4-3.1l-4.4,3.8l10.7,0.3l22.6-1.6l-1.6,3.8
			l12.9-9.7c0,0,5.7-3.5,6.3-4.7c0.6-1.3,6.3-8.2,6-9.1c-0.3-0.9-0.3-5.3-0.3-5.3l-12.6-0.6l-20.4-6.6L566.5,327.1z"/>
		<path d="M576.5,373.6c-1.6-0.3-24.8,1.9-24.8,1.9l-16.3-2.5l-11.9-2.2l15.7,7.5l10.4,1.6l5,3.5l14.8-1.9L576.5,373.6z"/>
		<path d="M503.4,346.6c0,0,22.9,19.8,22,19.5c-0.9-0.3-18.2-7.5-18.2-7.5l-2.5-5.7L503.4,346.6z"/>
		<path d="M421.1,277.8c1.9,0.6,12.6,3.5,12.6,3.5l7.5,2.2l-6.3,2.8L421.1,277.8z"/>
		<path d="M428.6,288.2c1.6,0.6,8.5,3.1,8.5,3.1l5-1.6l-2.5,6L428.6,288.2z"/>
		<path class="st0" d="M342.9,133.3c-0.9,1.3-9.4,10.4-9.4,10.4l-3.8,17l2.8,11.6l10.4,20.4l14.1,12.2l1.3-2.2l3.9,2.4l3.6-0.9
			l4.2,1.3l2-1.1l7.5,9.1l6,4.7l27-0.9L412,188l6.9-11.3l-1.9-7.9l-1.4-3.5l-8.6-12.9l-3.1-6.6l-13.5-11l-3.5-0.9l-2.2-1.9l-3.1-0.3
			l-2.8-2.5l-9.4-0.9l-13.2-0.3L342.9,133.3z"/>
		<path class="st8" d="M348.9,146.1c0.9-0.5,10.4-3.5,10.4-3.5l-7.1-1.2"/>
		<path class="st8" d="M363.3,156.3l-6.4,8l-0.7-3.5l-3.3,1.4l-3.1,3.3l-1.4,5.9c0,0-3.1-12-2.1-13.4c0.9-1.4,6.8-7.5,6.8-7.5
			l-5.4-4.2l1.4-3.3l-11.3,3.5c0,0,7.5,1.2,6.6,1.4c-0.9,0.2-11.6,5.3-11.6,5.3l1.5,11.4l9.2,25.7l-0.5,0.9l12.7,11.1
			c0,0,1.6-2.1,3.1-1.6c1.6,0.5,5.4,4,6.9,3.5c1.5-0.5,7.1-1,7.9-1.3c0.7-0.2,11.5,0.7,11.5,0.7s5.9-4.2,5.2-4.7
			c-0.7-0.5-8-4.5-8-4.5l11.8,2.6l13.7-8.2c0,0,6.4-9,5.4-9s-7.3-4.7-7.3-4.7l3.3-5.7c0,0-4.9-0.9-5.7-0.5s-7.8,4-7.5,3.3
			c0.2-0.7,4.9-8.5,4.9-8.5l-1.6-3.3c0,0-3.3-2.1-4.5-1.6c-1.2,0.5-6.6,6.6-6.6,6.6l-3.8-0.9c0,0-2.6-4-0.7-4.5
			c1.9-0.5,5.4-0.3,5.4-0.3l-0.2-3.5l4.2-1.2l-1.4-2.4l-9.4,0.5l-2.4-1.6l0.9-5.3l-6.3,0.6l0.2,2.1h-3.5l1.6,4.5l-1.5,5.5l-1.3,10.7
			l-3.4-12.6l-0.2,9.4l-2.4-10.1"/>
		<path class="st8" d="M367.1,143.5l3.3,10.8l-5.9-8C364.5,146.4,366.1,144,367.1,143.5"/>
		<polyline class="st11" points="352.7,148.3 347,156.5 347.5,170.6 349.6,183.1 350.1,172 354.8,165.2 356.9,164.3 364.7,154.1 
			365.2,145.4 368.5,142.4 383.9,142.8 388.3,133.9 376.3,132.9 371.1,134.8 370.4,139.5 362.8,145 361.9,147.1 		"/>
		<polygon class="st11" points="350.6,143.5 344.1,155.9 342.6,167.1 347.5,181.5 352,187.1 366.6,203.4 362.2,205.1 358.3,202.7 
			357,204.9 342.9,192.7 332.5,172.3 329.7,160.7 333.5,143.7 342.9,133.3 355.3,128.2 378.7,129.3 370.1,130.1 358.8,136.2 		"/>
		<path d="M353.2,150.4l-4.2,7.3l-0.9,1.4l1.9,6.4l1.4-2.6l-1.2-3.3l1.6-1.9l2.1,0.7l-1.9,1.9l0.9,1.9l3.3-2.4l5.7-8l-1.4-3.8
			l3.1-0.9l0.2,5.9l-7.3,9.4l0.5,1.9h-2.8l-5.4,6.1l-2.4-12.5l0.5,11.8l2.1,10.8l4,5.4c0,0-2.4-5.4-2.4-6.1c0-0.7-0.5-7.8-0.5-7.8
			l4.9-5.9l2.8-0.2l7.5-10.8l-0.2-9.7l3.3-3.1l-1.6-7.5v5.9l-4,4.2l-4.5,2.1l-5.7,1.2l-5.7,8.2L353.2,150.4z"/>
		<path d="M366.9,146.4c0,0-0.5,8.8-0.5,8.3c0-0.5,1.1-4.7,1.1-4.7l1.1,4.9l-0.8-9L366.9,146.4z"/>
		<path d="M369.7,150.8l0.9,0.3l1.1,6.6l2.2,0.3l-0.8-2.7l1.6,2.8l1.9-0.6l-0.8,8.2l1.4,4.7l-3.5-4.1l-0.3-7.1l-2-0.3
			c0,0-0.8,7.5-0.8,7.1s-1.1-8.5-1.1-8.5L369.7,150.8z"/>
		<polygon points="365.8,156.3 366.8,162.1 365.8,172.6 364.9,164.4 		"/>
		<polygon points="363.9,159.9 363,170.1 367.2,180.1 361.4,169.8 		"/>
		<path d="M351.8,171.7c0.3-0.5,3.3-4.1,3.3-4.1l2.5-0.3l-3.1,3.9L351.8,171.7z"/>
		<path d="M353.4,172.9c0,0.5-0.5,4.6-0.5,4.6l1.9,2.8l1.4,5.2l0.2-11.8L353.4,172.9z"/>
		<polygon points="365.8,184.1 378.4,190.3 375.5,191.4 361.9,188.5 359.1,185.9 362.7,186.6 359.1,178.1 358.3,169.6 		"/>
		<polygon points="370.2,169.6 373.5,180 371.3,180.4 382.5,185.9 384.3,185.2 375.1,180.1 		"/>
		<polygon points="374.4,149.8 376.3,151.4 375.7,152.7 376.8,155.5 375.5,156.6 373.8,153.3 374.9,152 		"/>
		<polygon points="377.1,146.4 377.4,149.5 378.8,151.6 378.4,153.4 380.9,153 381.2,155.9 385.6,155.9 385.8,153.9 382.3,154.2 
			382.6,151.7 381.4,150.8 382,149.7 381.8,144.5 376.3,143.4 371,143.5 374.1,145.3 379.9,145.3 380.9,146.2 381,149.7 
			380.3,150.6 379.2,148.4 380.3,148.9 379.9,146.4 		"/>
		<polygon points="380.7,170.2 382,166.9 382.8,158.6 387,158.5 387.8,154.1 392.7,154.1 396.1,152 394.9,155.8 389.8,156.3 
			389.2,159.7 385,160.7 384.8,165.2 		"/>
		<path d="M385.9,168.5c0.2-0.5,1.1-4.4,1.1-4.4l4.1-3l1.9-3.1l5.3-0.6l-4.6,4.2l-3.3,4.1L385.9,168.5z"/>
		<polygon points="380.3,171.3 380.9,173.4 387.8,173.5 381.8,172 		"/>
		<polygon points="377,171.7 379.3,177 391.7,180.4 380.7,175.9 		"/>
		<path d="M369.4,140.9c0.2-0.5,0.9-4.6,0.9-4.6l-0.8-1.1l6.8-2.4l1.9,0.3l-5.2,2.2l6.9-1.6l4.4,0.9l-2.7,4.1c0,0-8.3,1.7-8.2,1.3
			c0.2-0.5,0.8-2.4,0.8-2.4l-1.7,0.3l-0.8,2.7l-1.9,1.4L369.4,140.9z"/>
		<path d="M371.6,142.3c0.6-0.2,11-1.1,11-1.1l4.2-7.2l2.2,0.2l-5.2,8.6L371.6,142.3z"/>
		<path d="M383.9,145.3c0.8-0.2,13.2-0.8,13.2-0.8l4.2,6.1l-5.7-4.6L383.9,145.3z"/>
		<polygon points="382,149 395.8,149.4 403.3,158 395.3,150.5 381.4,150.8 		"/>
		<polygon points="389.2,173.5 390,169 394.9,166.9 400.2,159.1 401.6,161.6 408.5,162.5 401.5,165.4 393.6,172.4 390.9,176.8 		"/>
		<path d="M397.1,176.8c0.2-0.5,4.7-8.2,4.7-8.2l6.6-2l1.7,2.8l-7.2,4.2l0.6,3.9l3-0.9l-0.5,2.7l-6.9,1.3L397.1,176.8z"/>
		<path d="M352.5,142.1c1.1,0.2,7.5,0.5,7.5,0.5s-6.3-1.9-5.8-2c0.5-0.2,8-6.8,8-6.8l-13.3,8.2l-4.2,9.6l-4.1-1.9l-7.7,3.5l-1.7,6.3
			l2.7,13.3l9.3,18.4l2.4,0.9c0,0-4.1-8-3.8-7.5c0.3,0.5,11.5,13,11.5,13l2.2,2.8l-6.9-12.7l8.3,11.8l6.6,2.8l2-0.5l-12.4-15.9
			l-5.3-7.9c0,0-2-7.9-2.2-8.6c-0.2-0.8-1.3-13.5-1.3-13.5L352.5,142.1z"/>
		<path d="M347.4,133c0.6,0,9.3,0,9.3,0l3.3,0.5l-3.5-1.6l-6.6,0.2L347.4,133z"/>
		<path d="M363.3,133.5c0.5-0.5,8.2-2,8.2-2l0.8-2.2l-4.7,1.6L363.3,133.5z"/>
		<polygon points="361.9,137.1 364.4,138.7 364.6,141 		"/>
		<polygon points="358.7,138.8 359.8,137.1 362.5,140.9 		"/>
		<path d="M344.5,192.5c0.5,0,11.3,9.7,11.3,9.7l3.1-1.6l4.4,1.6l3.8-1.1c0,0-2.4-4.1-2.7-4.6c-0.3-0.5,1.3-0.3,1.3-0.3
			s-9.7-9.4-9.1-9.3c0.6,0.2,10,8.5,10,8.5l1.7,0.3l4.6,4.6c0,0,10.7-1.6,10.4-2s-8.5-3.9-8.5-3.9l4.4-0.5l12.9,0.3l11.1-6.4
			c0,0,6.3-6.4,6.4-6.9c0.2-0.5,7.4-9.7,7.4-9.7l-1.4-5.8l3.3,4.7l2.2,10.4l-6.3,8.3l1.4,7.5c0,0,9,6,8.8,5.5c-0.2-0.5-0.5-3-0.5-3
			l4.9,10.4l-11.6-2.7l3.1,6.1c0,0,13.5,6.8,13.5,7.2s0.8,2.8,0.8,2.8l-13.3-4.6l-30,0.3l-15.7-12.2l6.9-0.6l-9.6-3.6l-3.5,3.5
			c0,0-3.8-1.3-4.2-1.3c-0.5,0-3.6,0.9-3.6,0.9l-3.9-2.4l-1.3,2.2L344.5,192.5z"/>
		<polygon points="339.9,140.7 341.8,138 348.2,137.1 		"/>
		<polygon points="348.7,134.6 351.8,134 354.3,135.2 		"/>
		<path class="st12" d="M540,389l23.6-0.9l21.7-25.9c0,0,14.6-11.3,16-12.7S612,316,612,316l-3.8-37.7l18.8,4.7l5.2,5.2l41.5,18.4
			l30.1,14.6l28.7,22.1l20.7,19.3l6,17.9l-5.7,14.8l-14.1-0.6l-12.6,0.6c0,0-15.1-3.1-16.3-3.1s-33.3-17.9-33.3-17.9l-8.2-5.3
			l-10,2.2l-11.3-6.6l-13.8-2.8l-0.6,2.2l13.2,2.5l37.1,29.5l24.2,11.6l21,10.7l17.6,11.6l7.9,11.9l7.2,0.9l1.6,3.1l6.9-1.6l0.6,2.2
			l9.7,0.6l44.6,25.8c0,0,22,13.8,22.9,14.1c0.9,0.3,26.1,13.5,26.1,13.5l6.9,1.3l10,12.2l-5.7,7.2l-17.3-5.3l-51.2-10.7l-11.6-4.7
			c0,0-38.9-8.5-39.9-8.8c-0.9-0.3-11.9-8.2-13.5-8.8s-27-13.8-27-13.8l-6.9-1.6l-1.6-3.5l-7.9-0.6l-22.3,0.3l-18.2-4.1
			c0,0-15.7-10-16.6-10.4c-0.9-0.3-60.9-26.4-60.9-26.4l-10.4-9.4l-19.8-11.9c0,0-8.5-2.5-9.4-3.5C549.8,397.1,540,389,540,389z"/>
		<path d="M546.1,389l17.4-0.9l8-10.8l13.7-15.1l16-12.7l4.7-15.5L612,316l-2.8-31.1l3.8-1.9l1.9,10.8l0.9-9.4l1.9,10.4l0.9-8.5
			l2.4,9.4l2.8-7.5v9l4.2-6.6l-4.7,13.7l1.9,29.7l0.5-25.9l4.2-13.7l10.8,10.8l26.4,12.7l-12.2-10.4l-15.1-12.7l22.6,12.2l39.6,16
			l13.7,10.4l19.3,22.1l-2.8-8.5l18.8,17.4l5.7,17.9l-4.2,10.4h-11.8l-12.7-9l-9-7.1c0,0-9.9-7.5-11.8-8c-1.9-0.5-14.6-4.7-14.6-4.7
			l13.7,7.1c0,0,5.2,3.8,6.6,4.7s17.4,15.1,17.4,15.1l-17-1.9l-20.7-11.8l-10.8-3.8l-8-4.2l-8-4.7L645.9,340l17.9,27.8l-4.7-0.5
			l-15.5-15.1l8.5,12.2c0,0-6.1-3.3-8-3.8c-1.9-0.5-10.4-2.8-10.4-2.8l-5.7,7.5l9.4,1.9l7.1,1.9l30.1,25.9l6.1,11.3
			c0,0,35.8,17.9,33.9,17.4s-17.4-11.3-18.8-13.2c-1.4-1.9-7.1-9-7.1-9s23.1,14.1,24.5,15.1c1.4,0.9,23.1,10.4,23.1,10.4l15.5,19.8
			c0,0-2.8,4.7-4.2,4.7s-23.6,6.1-23.6,6.1l-16-4.2l-18.4-11.8l-46.2-17.9l41,20.7l8.5,3.8l10.4,8l14.1,3.3c0,0-23.1,1.9-24.5,1.9
			c-1.4,0-20.7-4.2-20.7-4.2S637.9,438,635.6,437c-2.4-0.9-31.1-14.1-31.1-14.1l10.4,0.5l-33.9-15.5l-10.8-8L556,396l9.9-1.9
			l-13.7-0.9L546.1,389z M636.5,391.3l-16.5-9.4c0,0,10.8,9.4,13.7,11.3c2.8,1.9,25,10.8,25,10.8l36.7,22.1L653,397l-32-36.7
			L628,372v0.9l12.7,17.9l-27.3-19.3L636.5,391.3z"/>
		<path d="M716.3,464c0,0,4.4-4.1,5.3-4.4s10-0.6,10-0.6l22.9-7.9l-1.6,3.5c0,0-19.5,7.2-20.4,7.5c-0.9,0.3-9.1,5.3-9.1,5.3
			l-2.5-3.8L716.3,464z"/>
		<path d="M734.8,463.1c0.9-0.3,11.9-4.4,11.9-4.4l12.6-5.7l3.1,7.9l-6-1.9l1.3,5.7l-8.8,3.5l-8.2-2.5l-6.9-0.3L734.8,463.1z"/>
		<path d="M737.3,466.2c0.9-0.3,10.4,2.5,10.4,2.5l12.9-1.3c0,0-0.9-3.8-1.3-4.7c-0.3-0.9,7.2,3.1,7.2,3.1l-4.4-13.2l-4.7-2.2
			l-4.4-6.9l8.2,5.7l13.5,3.1l4.7-2.2l31.7,18.2c0,0,21,14.8,22,15.4c0.9,0.6,13.5,6,14.4,6c0.9,0,24.8,13.5,24.8,13.5l8.5,1.3
			l8.5,9.1c0,0-2.5,4.1-3.5,4.7c-0.9,0.6-6.6-1.3-6.6-1.3l-32.3-7.5l-29.2-9.4l-6-0.3l-42.7-11l-11.3-8.5l1.9,3.5l-13.2-6.9
			l-19.8-8.5l5-4.7C731.7,463.7,736.4,466.5,737.3,466.2z M761.8,471.9l9.7,4.4l-7.2-0.3c0,0,18.2,6,19.5,6s53.1,17,53.1,17
			l-67.8-27.3l-5.3-3.8L761.8,471.9z"/>
		<path class="st0" d="M250.7,225.5c1.4,0,27.8,22.6,27.8,22.6l28.3,17.4l33.4,6.6L351,274l16.5,17.4c0,0,8.5-28.7,8-30.1
			c-0.5-1.4-11.3-17.4-11.3-17.4l-35.3-22.1l-17-8l-34.9-15.5l-20.3-1.4l-23.6-17H213l-56.5-17.4l-8-3.8l-2.8-10.1l-7.1-3.8
			l-1.9-6.6l-6.8-4.9l-4.5-1.4l-4.9-4l-0.7-0.9l-1.4,6.8l6.1,6.6l5.8,3.5l-0.2,3.6l-7.3,0.5l-9.2-3.3l-7.1-1.6l-8.7-1.6l-11.3-0.9
			l-4,3.8l0.2,1.2l-4.2-0.2l-1.9,6.4l6.4,2.4l-0.5,4l7.1,3.1l-1.9,4l8.2,7.5l14.6,5.7l14.4,4l13.4,5.4l10.4-1.4l3.1-3.3l66.4,41.2
			L250.7,225.5z"/>
		<path d="M253.4,196.8c-0.9,0.3-11.3,6.9-11.3,6.9l14.1-2.2l2.5-1.9l32.7,12.6l-7.2,0.9l31.4,11l7.9,3.1l-2.5,0.9l17,13.2l14.8,0.3
			l9.1,9.4l6,11l-8.2-5l-31.7-13.8l-0.9-3.1l-18.2-12.2l-23.6-7.2l11.9,11.9l12.9,2.2l18.8,14.8l7.5,1.3l1.9,5.7l8.2,3.5l5-2.8
			l22.9,11.6l-0.6,9.7l-4.1-5.7l-20.4-8.2l-44.6-6.6l4.4-4.1l-16.3-13.5c0,0-10.7-7.9-11.6-7.9s-8.8,0.9-8.8,0.9l-3.5-6.9l-9.4-9.1
			c0,0-22.9-8.5-23.9-8.5c-0.9,0-15.7,5.7-15.7,5.7s9.7-5,7.2-5s-13.5-0.3-13.5-0.3l-12.6-14.1l0.9,7.2l-26.7-19.2l-26.1-11l2.8,8.2
			c0,0-5.7-5.3-5.7-6.3c0-0.9,3.1-5.3,3.1-5.3l-2.2-7.2c0,0,45.9,17,46.8,17c0.9,0,19.2,3.1,19.2,3.1l13.8,12.9l-6.6-11.3l12.2,4.4
			L253.4,196.8z"/>
		<polygon points="158.5,179.2 173.9,185.5 162.3,183 		"/>
		<polygon points="177.4,188.6 185.5,193.6 183.3,195.2 		"/>
		<path d="M228.9,217.8c1.3-1.3,9.7-6,9.7-6l0.9,2.8L228.9,217.8z"/>
		<path d="M349.8,265.6c1.3,1.3,12.9,13.5,12.9,13.5l1.6-5L349.8,265.6z"/>
		<path d="M119.9,128.9l-0.6,4.4l5.3,6l2.2-3.5l-0.6,4.4l4.1,3.5l2.2-3.8l-0.9,6l6.6,10l3.1-1.6l-0.6,5.3c0,0,3.8,9.1,4.1,7.9
			c0.3-1.3,1.6-10,1.6-10l-6-8.2l-4.7-2.2l-0.6-7.2l-2.8-2.8l-2.8-2.5l-4.7-0.6L119.9,128.9z"/>
		<path d="M130.3,148.1l1.9,8.8l4.1,6l5.7,8.8l-10-9.7l5,15.4l-6.3-6.3l-6.9-2.8l-0.3,6l-2.8-22l4.1,11.3c0,0,5.3,3.8,4.7,2.8
			c-0.6-0.9-5.7-14.4-5.7-14.4l5.7,5L130.3,148.1z"/>
		<path d="M137.5,171.7c0,0,0.6,5.3,1.6,5.3s2.8,0.3,2.8,0.3L137.5,171.7z"/>
		<path d="M82.8,145.2c0.7-0.2,6.1-0.9,6.1-0.9l4.2,1.4l3.8-3.1l-0.9,3.1l3.3-3.3l-1.6,3.8l6.1,1.6l3.3-3.3l-1.2,3.3l3.5-3.1
			l-1.9,3.5l6.1,2.6c0,0,2.1-4.7,2.1-4s-0.2,4.7-0.2,4.7l-0.7,4.7l2.6,8l-2.6-2.6l-10.6-3.1l-14.1-4L79,151.8l6.4-2.4l4.7,3.3
			l4.2-4.5l-1.6,3.8l3.3-2.8l-1.9,4.2l5.9,0.2l2.6,2.8l2.8-4.2l-0.9,3.8l2.8-3.3l-1.6,4.2l9,3.1l-1.2-3.8l-0.2-2.8l-10.4-4l-12-2.4
			L82.8,145.2z"/>
		<path d="M86.3,157.7c0.5,0.7,9.4,6.1,9.4,6.1l6.8,1.9l14.4,4.5l0.5-1.6l-2.4-1.2l-1.6-4.2l-0.2,3.3l-3.1-0.5l-4.7-1.2l-1.2-4
			l-0.7,3.1l-1.4-3.5v3.5l-5.4-1.4l-8-5.2L86.3,157.7z"/>
		<path d="M88.7,164.5c0.7,0.7,7.5,6.6,7.5,6.6l14.6,5.9l8.7,1.4l3.5,0.5l-4.9-4.2l-1.2,1.2l-6.8-0.9l-2.1-5.2v4.2l-2.1-5.2l0.2,4.2
			l-6.8-2.8l-0.5-3.3l-1.2,3.1l-1.6-1.4l-3.3-3.8L88.7,164.5z"/>
		<path class="st13" d="M383.9,145.3c0.2-1.6,4.6-3.8,4.6-3.8l3.8,1.9L383.9,145.3z"/>
		<polygon class="st13" points="419.8,147.2 417.3,148.7 425.8,149.7 		"/>
		<polygon class="st13" points="436.9,147 432.5,150.1 439.1,150.1 		"/>
		<path class="st14" d="M449,144.5c0,0-4.4,1.9-3.5,1.9s5,1.3,5,1.3L449,144.5z"/>
		<polygon class="st14" points="381.8,144.5 377.1,146.4 382,149 		"/>
		<polygon class="st14" points="402.2,136.8 398.2,141.2 409.8,141.2 		"/>
		<polygon class="st14" points="412,132.1 417,143.4 433.3,137.1 		"/>
		<polygon class="st14" points="435.1,138.9 428.5,142.7 439.2,143.3 		"/>
		<polygon class="st14" points="498.3,143.7 489.2,146.8 498.7,148.1 		"/>
		<polygon class="st14" points="470.2,144.5 465.5,146.4 470.5,149.2 		"/>
		<polygon class="st13" points="414.8,134.9 409.5,138 416.4,140.6 		"/>
		<path class="st15" d="M414.2,150.6c-0.9,0.3-8.8,2.5-8.8,2.5l8.8,3.1V150.6z"/>
		<path class="st15" d="M414.8,144c-1.3,0-7.5,2.2-7.5,2.2l6,3.5L414.8,144z"/>
		<path class="st15" d="M476.8,150.6c-0.9,0-6,0.9-6,0.9l3.5,4.4L476.8,150.6z"/>
		<polygon class="st15" points="511.8,143.4 502.7,145.3 510,149.4 		"/>
		<path class="st15" d="M539.8,151.6c-0.9,0-7.9,1.3-7.9,1.3l6.9,3.8L539.8,151.6z"/>
		<path class="st15" d="M487,144.6c-0.9,0-10,2.2-10,2.2l7.5,4.1L487,144.6z"/>
		<path class="st15" d="M382.8,151.2c-1.6,0-7.2,1.9-7.2,1.9l4.4,4.4L382.8,151.2z"/>
		<path class="st15" d="M397.2,150.3c-1.3,0-6.6,2.5-6.6,2.5l5,1.9L397.2,150.3z"/>
		<path class="st15" d="M456,129.6c-1.3,0.3-9.7,5-9.7,5l5.3,1.3L456,129.6z"/>
		<polygon class="st15" points="454.1,147.5 444.6,150.3 450,153.4 		"/>
		<polygon class="st15" points="569.9,151.6 561.5,153.8 565.2,155 		"/>
		<path class="st15" d="M549.8,148.4c-0.9,0-6.9,1.9-6.9,1.9l5.3,3.5L549.8,148.4z"/>
		<path class="st8" d="M414.9,183.6c1.2,0.2,18.1,16.7,18.1,16.7s3.3-7.3,3.5-8s8.7-3.1,8.7-3.1s-13.4,0-13-0.7
			c0.5-0.7,7.5-6.1,7.5-6.1l16.3-3.5l-6.8,12.2c0,0,0,9,0.9,7.8s9.2-15.3,9.2-15.3l12.7-7.3l3.5,0.7l-4.7,10.1
			c0,0-5.9,14.4-4.5,13.2s12.7-16.5,12.2-15.8c-0.5,0.7-0.5,10.4-0.5,10.4l5.4-4.7l13,9.4l4,19.5l-1.2,16.7l-18.8,9.7
			c0,0-4.7,3.8-4.9,2.8c-0.2-0.9-16.5-8.7-17-9.7c-0.5-0.9-5.7-9-6.4-9c-0.7,0-5.2-2.6-5.2-2.6l-8.2-5.9c0,0-4.2,0.9-4.9,0.7
			s-20-7.1-20.5-7.8c-0.5-0.7-7.8-19.8-7.8-19.8L414.9,183.6z"/>
		<path class="st8" d="M332,223.6l9.2-5.2c0,0,14.8-1.4,17.7-1.6c2.8-0.2,21.4,4,22.8,3.8c1.4-0.2,21.7,2.8,22.6,2.6
			c0.9-0.2,16-0.7,17.4-0.7c1.4,0,18.4,4.9,18.4,4.9l-21.2-0.7c0,0-8,4.2-6.8,4c1.2-0.2,28,4.9,29,5.2c0.9,0.2,24.7,15.1,25.7,15.8
			s5.7,7.8,4.9,7.8c-0.7,0,5.9,0.9,5.9,1.6s6.6,0.9,6.8,1.6c0.2,0.7,9-12.7,9-12.7s2.4,12.5,3.1,13.2c0.7,0.7,1.9,9.2,1.9,9.2
			l29.9,19.5l16.3-21l15.1,18.4c0,0,3.1,26.4,4,26.1c0.9-0.2,14.6-2.4,14.6-2.4l14.1,2.4l5.4-7.3l5.9,22.1l2.4,3.8l-5.7,15.8
			l-16,13.2c0,0-8.5,10.4-9.2,10.8c-0.7,0.5-10.6,14.6-11.3,14.8s-24.5,0.2-24.5,0.2l-22.1-16.5c0,0-20.7-9.7-21.9-9.4
			s-53.5-30.9-54.2-30.9c-0.7,0-33-18.1-34.4-17.7c-1.4,0.5-25.9-5.4-25.9-5.4l-30.1-34.9c0,0-43.6-8.2-44.3-8.2
			c-0.7,0-28.5-17.7-28.5-17.7L250.2,226l-32.3-1.4c0,0-65.5-41-66.2-41s-3.1,3.8-3.1,3.8l-9.7,1.2l-15.5-6.1l-13.7-3.8L96,173.2
			l-8.7-8.2l1.6-3.1l7.8,5.4l12,4c0,0,9.4,3.3,9,2.6c-0.5-0.7-1.4-4.5-2.4-4.7c-0.9-0.2-13.2-4.2-14.1-4c-0.9,0.2-6.4-1.9-6.4-1.9
			l-12.2-5.2l0.2-3.5l10.4,2.8l6.6,4.5l9.7,2.1l5.7,2.1l-0.5-4.9c0,0-11.5-3.5-12.2-3.5c-0.7,0-9.9-2.4-10.6-2.4
			c-0.7,0-14.4-2.6-14.4-2.6l-1.4-1.4l1.4-1.9H87l6.6,3.1l10.4,1.4l11.1,4.7l-2.4-6.1l-10.8-3.5c0,0-13.2-2.1-13.9-2.4
			c-0.7-0.2-6.4-1.4-6.4-1.4l-0.2-1.4l9-0.7l7.1,1.9l10.8,2.1l4.7,2.1l5.2,1.4l5.7,16.3l0.5-14.8l7.3-7.1l-1.2,11.1l11.1,15.8
			l1.4-11.5l7.3,5.2l35.6,17.7c0,0,22.8,1.9,23.8,2.6c0.9,0.7,17.2,13.7,17.2,13.7l16-3.1l-5.2,8.7l22.8,5.4l17.9,2.6l25.4,9.7
			l15.8,5.4L332,223.6z"/>
	</g>
</g>
<g id="f9">
	<path class="st14" d="M465.5,207.6c-1.4,0-18.8,3.3-18.8,3.3l22.6,6.6L465.5,207.6z"/>
	<path class="st14" d="M544.2,276.9l-22.6-6.1c0,0,11.8-3.3,13.7-3.3L544.2,276.9z"/>
	<path class="st14" d="M772.2,383.3c-1.3,0.3-9.4,0.3-9.4,0.3l11.6,5L772.2,383.3z"/>
	<path class="st14" d="M809.6,398.7c-1.3,0-12.2,2.5-12.2,2.5l13.2,2.5L809.6,398.7z"/>
	<polygon class="st14" points="407.6,144.6 400.7,147.2 408.8,148.4 	"/>
	<polygon class="st14" points="715.2,481.8 719.4,490.7 727,487.4 	"/>
	<path class="st14" d="M831.1,377.7c-0.5,1.9,2.4,13.7,2.4,13.7l8.5-1.4L831.1,377.7z"/>
	<polygon class="st0" points="841,526.1 850.4,523.2 849.5,532.7 	"/>
</g>
<g id="f8">
	<path class="st15" d="M581.6,205.9c-0.9,0.3-11.9,3.1-11.9,3.1l8.5,2.8L581.6,205.9z"/>
	<path class="st15" d="M633.7,188c-1.3,0-6,1.9-6,1.9l6.9,2.5L633.7,188z"/>
	<polygon class="st15" points="686.5,231.2 698.7,230.4 695.6,235.7 	"/>
	<path class="st15" d="M638.7,203.4c-2.2,0.3-17,3.1-17,3.1l5.3,4.1L638.7,203.4z"/>
	<polygon class="st15" points="605.4,191.4 600.1,194.3 604.2,197.4 	"/>
	<polygon class="st16" points="536.3,169.8 537.3,175.7 544.8,175.1 	"/>
	<path class="st16" d="M748,225c-0.9,0.3-8.2,3.8-8.2,3.8l6.9,2.5L748,225z"/>
	<path class="st16" d="M719.1,232.6c-1.3,0-17.1,4-17.1,4l10.2,7.6L719.1,232.6z"/>
	<path class="st14" d="M623.3,151.6c-1.9,0-7.5,2.5-7.5,2.5l9.1,2.8L623.3,151.6z"/>
	<path class="st14" d="M794.8,250.5c-1.6,0.3-6,1.6-6,1.6l6,5.3V250.5z"/>
</g>
<g id="f7">
	<polygon class="st13" points="148.5,148.7 139.1,154.7 154.1,154.1 	"/>
	<polygon class="st13" points="178.9,154.7 172.4,157.5 180.2,159.1 	"/>
	<path class="st13" d="M178,140.2c0.9-0.9-7.9,1.9-7.9,1.9l8.2,2.2C178.3,144.3,177.4,140.9,178,140.2z"/>
	<polygon class="st14" points="119.3,150.6 126.2,159.4 130.3,156 	"/>
	<path class="st14" d="M133.1,128c-2.2,0.3-11,2.8-11,2.8l2.5,3.1L133.1,128z"/>
	<path class="st14" d="M186.8,166.3c-1.6,0-7.5,3.1-7.5,3.1l4.7,4.7L186.8,166.3z"/>
	<path class="st16" d="M202.2,173.8c0,0,9.7,10.7,10,9.4c0.3-1.3,3.1-4.1,3.1-4.1L202.2,173.8z"/>
	<polygon class="st16" points="316.8,190.8 312.4,192.7 319.3,195.5 	"/>
</g>
<g id="f6">
	<path class="st13" d="M222,166c-0.9,0-7.5,2.8-7.5,2.8l5.3,1.9L222,166z"/>
	<polygon class="st13" points="250.6,179.5 246.5,182.3 251.5,184.8 	"/>
	<polygon class="st14" points="145,164.7 136.9,166.9 146,171.7 	"/>
	<path class="st14" d="M158.2,126.7c-0.9,0-8.8,2.8-8.8,2.8l8.5,1.3L158.2,126.7z"/>
	<path class="st14" d="M212.5,159.4c-1.3,0.3-9.1,3.1-9.1,3.1l5.3,3.5L212.5,159.4z"/>
	<polygon class="st14" points="290.1,189.2 282.3,190.8 288.2,193 	"/>
	<path class="st15" d="M213.8,151.2c-1.6,0.3-9.7,0-8.2,0.3c1.6,0.3,7.5,4.7,7.5,4.7L213.8,151.2z"/>
	<path class="st16" d="M220.1,137.4c-1.6,0.3-9.4,2.2-9.4,2.2l8.8,3.1L220.1,137.4z"/>
	<polygon class="st16" points="315.2,180.8 312.1,182.6 317.1,183.9 	"/>
</g>
<g id="f5">
	<path class="st16" d="M775.3,252.4c-0.9,0.3-4.1,1.6-4.1,1.6l5,2.5L775.3,252.4z"/>
	<path class="st16" d="M552,203.4c1.3-0.9,13.5-4.1,13.5-4.1l-2.5,6L552,203.4z"/>
	<path class="st14" d="M523.1,140.9c-3.1-0.3-18.8,1.9-17.9,1.6c0.9-0.3,8.8,3.5,8.8,3.5L523.1,140.9z"/>
	<path class="st14" d="M392.5,134c-0.9,1.3-5.7,6.3-5.7,6.3l9.7-1.6L392.5,134z"/>
	<path class="st14" d="M701.2,243.6c0,0-10.7,6-9.1,6s10,4.1,10,4.1L701.2,243.6z"/>
	<path class="st14" d="M121.5,143.1c0.9-0.3,9.1-3.8,9.1-3.8l1.6,11.9L121.5,143.1z"/>
</g>
<g id="f4">
	<path class="st13" d="M117.7,142.1c-0.9,0.3-8.3,2.6-8.3,2.6l6.8,4.3L117.7,142.1z"/>
	<polygon class="st13" points="131.5,149.4 124.2,152 132.2,155.3 	"/>
	<path class="st13" d="M161.7,158.1c-0.9,0.3-5.3,3.5-5.3,3.5l9.4,1.9L161.7,158.1z"/>
	<path class="st13" d="M199.4,158.8c0.9,0.4-6.9,2.8-6.9,2.8l7.5,1.9C200,163.5,198.7,158.5,199.4,158.8z"/>
	<polygon class="st13" points="238,157.8 228.9,159.7 235.5,162.9 	"/>
	<path class="st13" d="M150.1,136.2c-0.9,0.3-9.4,3.5-9.4,3.5l7.9,4.4L150.1,136.2z"/>
	<path class="st13" d="M258.1,188c0,0-13.5,2.2-12.6,2.2s5.7,4.1,5.7,4.1L258.1,188z"/>
	<polygon class="st14" points="109.5,153.4 119.6,163.2 121.2,155.6 	"/>
	<polygon class="st14" points="176.4,164.1 167,167.3 173.6,170.1 	"/>
	<path class="st14" d="M184,150.3c-1.3,0-8.8,2.2-8.8,2.2l6.3,3.8L184,150.3z"/>
	<polygon class="st14" points="162,148.1 154.8,150.6 162.9,155.3 	"/>
	<path class="st14" d="M162,132.7c0,0-4.7,1.6-3.8,1.6c0.9,0,2.8,3.1,2.8,2.2S162,132.7,162,132.7z"/>
	<path class="st14" d="M289.2,195.8c-1.3,0-11,2.2-11,2.2l6.6,6L289.2,195.8z"/>
	<polygon class="st14" points="258.4,170.1 243.6,172 255.3,176.7 	"/>
	<polygon class="st14" points="282.3,181.1 271.6,184.5 277.2,188.9 	"/>
	<polygon class="st16" points="95.2,144.6 96.3,134.7 108.8,141.5 	"/>
	<path class="st15" d="M139.7,142.1c1.3,0.6-8.2,3.8-8.2,3.8l9.4,1.9C140.9,147.8,139.1,141.8,139.7,142.1z"/>
	<path class="st15" d="M239.2,168.5c-1.3,0-18.2,4.4-18.2,4.4l13.5,2.8L239.2,168.5z"/>
	<path class="st16" d="M157.3,142.1c-1.6,0-8.8,1.9-8.8,1.9l7.5,3.8L157.3,142.1z"/>
	<path class="st16" d="M245.2,141.5c-0.9,0-7.5,2.2-7.5,2.2l5,2.8L245.2,141.5z"/>
	<path class="st16" d="M196.2,166.9c-1.3,0-11.3,1.9-11.3,1.9l8.8,4.7L196.2,166.9z"/>
	<path class="st16" d="M336.6,202.4c-1.6,0.3-10.7,3.8-10.7,3.8l7.5,2.2L336.6,202.4z"/>
	<polygon class="st16" points="357,209.7 352.3,214 360.8,218.1 	"/>
	<path class="st16" d="M112.4,132.4c-0.9,0-7.2,5-7.2,5l7.9,2.8L112.4,132.4z"/>
</g>
<g id="f3">
	<path class="st14" d="M568.7,186.1c-2.2,0.3-15.1,3.8-15.1,3.8l12.2,6L568.7,186.1z"/>
	<path class="st14" d="M584.1,187.7c-0.9,0-8.5,1.9-8.5,1.9l6.6,3.8L584.1,187.7z"/>
	<path class="st14" d="M579.1,194.9c-0.9,0.3-11,2.2-9.7,2.5s8.5,2.8,8.5,2.8L579.1,194.9z"/>
	<path class="st14" d="M608.3,182.6c-0.9,0-9.4,2.5-9.4,2.5l6.3,1.9L608.3,182.6z"/>
	<polygon class="st14" points="623.3,193.3 608.3,195.2 617.1,198 	"/>
	<polygon class="st14" points="615.2,188 609.5,189.9 614.2,191.4 	"/>
	<path class="st15" d="M597.3,191.8c-0.9,0-9.7,2.5-9.7,2.5l5.3,2.5L597.3,191.8z"/>
	<polygon class="st15" points="653.5,196.1 642.2,199.3 648.8,202.1 	"/>
	<polygon class="st15" points="667.6,204.6 660.4,207.1 666.4,209.7 	"/>
	<path class="st15" d="M677.4,218.4c-0.9,0-12.2,4.1-12.2,4.1l5.3,2.2L677.4,218.4z"/>
	<path class="st15" d="M714.1,226.6c-0.9,0.3-8.2,2.2-8.2,2.2l7.5,1.3L714.1,226.6z"/>
	<path class="st15" d="M717.5,230.1l5-1.3l-0.9,4.7C721.6,233.5,716.3,229.4,717.5,230.1z"/>
	<polygon class="st15" points="729.5,231.6 725.1,234.5 730.1,234.8 	"/>
	<polygon class="st15" points="710.6,219.4 695.6,222.5 702.5,224.7 	"/>
	<path class="st15" d="M607.3,202.1c-0.9,0.3-9.4,0.9-9.4,0.9s0.6,7.5,1.6,6.6C600.4,208.7,607.3,202.1,607.3,202.1z"/>
	<path class="st15" d="M597.9,196.5c-0.9,0.3-11.9,5.3-11.9,5.3l6.3,4.4L597.9,196.5z"/>
	<path class="st15" d="M590.4,182.6c-1.3,0.6-4.7,2.8-4.7,2.8l5,2.5L590.4,182.6z"/>
	<polygon class="st16" points="573.7,170.4 566.5,175.7 573.1,178.2 	"/>
	<polygon class="st16" points="608.3,207.8 615.8,215.9 621.1,211.5 	"/>
	<path class="st16" d="M532.3,174.5c0.9,0.9,6.9,14.8,6.9,14.8s6-5.3,4.7-6S532.3,174.5,532.3,174.5z"/>
	<polygon class="st16" points="461.6,138.4 451.2,141.2 460.3,145 	"/>
	<path class="st16" d="M631.8,196.8c0,0-8.8,3.5-7.2,3.1c1.6-0.3,8.5,0.3,8.5,0.3L631.8,196.8z"/>
	<path class="st16" d="M756.5,238.2c-1.6,0-13.8,5-13.8,5l10.4,3.5L756.5,238.2z"/>
	<path class="st16" d="M764.7,240.4c-1.6,0.3-5.7,2.8-5.7,2.8l6.3,1.3L764.7,240.4z"/>
	<path class="st16" d="M776.3,237.3c-0.9,0.3-5.7,2.8-5.7,2.8l5,1.3L776.3,237.3z"/>
	<path class="st14" d="M402.6,131.5c-1.3,0.3-4.7,2.2-4.7,2.2l6.9-0.3L402.6,131.5z"/>
	<path class="st14" d="M303.6,210.3c1.9,0.3,13.5,8.2,13.5,8.2l-4.1-12.9L303.6,210.3z"/>
	<polygon class="st14" points="424.2,139.9 420.1,144.6 434.3,144.6 	"/>
	<path class="st14" d="M648.8,206.8c-1.9,0-13.8,4.1-13.8,4.1l11.9,3.8L648.8,206.8z"/>
	<path class="st14" d="M656.3,211.5c-0.9,0.3-5.3,2.8-5.3,2.8l6.9,1.9L656.3,211.5z"/>
	<path class="st14" d="M754.3,254.2c1.2-0.4-7.5,2.2-7.5,2.2l7.5,2.2C754.3,258.6,753.4,254.6,754.3,254.2z"/>
	<path class="st14" d="M810.2,251.7c-0.9,0-6.3,1.6-6.3,1.6l7.2,3.8L810.2,251.7z"/>
	<path class="st14" d="M829.7,255.2c-1.3,0.3-7.5,1.9-7.5,1.9l7.5,1.6V255.2z"/>
</g>
<g id="f2">
	<path class="st14" d="M426.7,147.1c-1.9,0.5-9.9,4.2-8.5,3.8c1.4-0.5,12.7,2.4,12.7,2.4L426.7,147.1z"/>
	<polygon class="st14" points="484.4,202 477.8,205.7 487.7,207.1 	"/>
	<polygon class="st14" points="517.3,266.5 507.4,269.8 518.8,274 	"/>
	<polygon class="st14" points="493.3,250 514,269.8 524.9,261.3 	"/>
	<path class="st14" d="M763.7,370.1c-2.4-0.9-17.9-0.9-17.9-0.9l20.7,8.5L763.7,370.1z"/>
	<polygon class="st14" points="770,380.2 780.4,379.6 787.9,389.3 	"/>
	<path class="st14" d="M780,389c-0.9,0-4.4,2.2-4.4,2.2l7.5,3.5L780,389z"/>
	<path class="st14" d="M819,409.1c-0.9,0.3-7.2,1.6-7.2,1.6l9.7,2.8L819,409.1z"/>
	<path class="st14" d="M780.4,399.7"/>
	<path class="st14" d="M836.1,468.6c-3.5-1.4-22.6-1.4-18.4-0.7c4.2,0.7,26.1,10.6,26.1,10.6L836.1,468.6z"/>
	<path class="st14" d="M920.1,494.1c-3.5,0-33.2-1.4-33.2-1.4l31.1,10.6L920.1,494.1z"/>
	<path class="st14" d="M689.8,462.9c1.4,1.4,0,18.4,0,18.4l17.4-5.7L689.8,462.9z"/>
	<path class="st14" d="M708.6,468.6c-2.4,0.9-9.4,4.7-8,4.7c1.4,0,16.5,0.9,16.5,0.9L708.6,468.6z"/>
	<polygon class="st14" points="733.1,480.8 737.8,494.5 746.3,491.2 	"/>
	<path class="st14" d="M783,501.1c-2.8,0-9.4,0.5-9.4,0.5s15.1,10.4,14.1,9C786.8,509.1,783,501.1,783,501.1z"/>
	<path class="st14" d="M826.8,505.8c-2.4,0-12.2,3.8-12.2,3.8l9,3.8L826.8,505.8z"/>
	<path class="st14" d="M756.6,494c-1.9,0.5-6.6,4.2-6.6,4.2l8,0.5L756.6,494z"/>
</g>
<g id="f1">
	<path class="st17" d="M782.4,402.2c-4.2-1.4-26.1-2.8-26.1-2.8l38.2,15.5L782.4,402.2z"/>
	<path class="st0" d="M802.1,410c-2.8,0-8.5,0-8.5,0l14.1,7.1L802.1,410z"/>
	<path class="st17" d="M833.1,418.2c-1.3,0-12.6,1.6-12.6,1.6l15.1,4.1L833.1,418.2z"/>
	<path class="st0" d="M844.7,422.6c-0.9,0-5,0.9-3.8,0.9s6.6,3.1,6.6,3.1L844.7,422.6z"/>
	<path class="st0" d="M858.6,431.4c0,0-11.6,1.9-10,1.9c1.6,0,8.8,2.5,8.8,2.5L858.6,431.4z"/>
</g>
<g id="nyt_x5F_exporter_x5F_info" class="st18">
	<text transform="matrix(1 0 0 1 -381.5 -216)" class="st19"><tspan x="0" y="0" style="font-family:'MyriadPro-Regular'; font-size:12px;">&lt;nyt_prefs&gt;</tspan><tspan x="0" y="14.4" style="font-family:'MyriadPro-Regular'; font-size:12px;">  &lt;nyt_prefix&gt;&lt;/nyt_prefix&gt;</tspan><tspan x="0" y="28.8" style="font-family:'MyriadPro-Regular'; font-size:12px;">  &lt;nyt_suffix&gt;&lt;/nyt_suffix&gt;</tspan><tspan x="0" y="43.2" style="font-family:'MyriadPro-Regular'; font-size:12px;">  &lt;nyt_base_path&gt;~/Desktop/testeExport&lt;/nyt_base_path&gt;</tspan><tspan x="0" y="57.6" style="font-family:'MyriadPro-Regular'; font-size:12px;">  &lt;nyt_scaling&gt;100&lt;/nyt_scaling&gt;</tspan><tspan x="0" y="72" style="font-family:'MyriadPro-Regular'; font-size:12px;">  &lt;nyt_transparency&gt;true&lt;/nyt_transparency&gt;</tspan><tspan x="0" y="86.4" style="font-family:'MyriadPro-Regular'; font-size:12px;">  &lt;nyt_format&gt;PNG 24&lt;/nyt_format&gt;</tspan><tspan x="0" y="100.8" style="font-family:'MyriadPro-Regular'; font-size:12px;">  &lt;nyt_export_code&gt;layers&lt;/nyt_export_code&gt;</tspan><tspan x="0" y="115.2" style="font-family:'MyriadPro-Regular'; font-size:12px;">&lt;/nyt_prefs&gt;</tspan></text>
</g>
</svg>
